# xmcd
#
# Track frame offsets: 
#        150
#        11386
#        35429
#        54946
#        76470
#        93992
#        108881
#        121518
#        134259
#        148714
#
# Disc length: 2126 seconds
#
# Revision: 0
# Processed by: cddbd v1.5.2PL0 Copyright (c) Steve Scherf et al.
# Submitted via: ExactAudioCopy v0.99pb4
#
DISCID=71084c0a
DTITLE=Balos Famil, The - Forever Settled
DYEAR=2011
DGENRE=Bluegrass
TTITLE0=I've Been Changed
TTITLE1=Johnny
TTITLE2=What I Have Written
TTITLE3=Faithful God
TTITLE4=Jailbreak
TTITLE5=No Substitute
TTITLE6=In God We Still Trust
TTITLE7=Bible On The Table
TTITLE8=Don't Make A Monkey Out Of Me
TTITLE9=Gospel Train
EXTD=
EXTT0=
EXTT1=
EXTT2=
EXTT3=
EXTT4=
EXTT5=
EXTT6=
EXTT7=
EXTT8=
EXTT9=
PLAYORDER=
